<?xml version="1.0" encoding="UTF-8" standalone="no"?>
<!DOCTYPE svg PUBLIC "-//W3C//DTD SVG 1.1//EN" "http://www.w3.org/Graphics/SVG/1.1/DTD/svg11.dtd">
<svg width="100%" height="100%" viewBox="0 0 500 500" version="1.1" xmlns="http://www.w3.org/2000/svg" xmlns:xlink="http://www.w3.org/1999/xlink" xml:space="preserve" xmlns:serif="http://www.serif.com/" style="fill-rule:evenodd;clip-rule:evenodd;stroke-linecap:square;stroke-linejoin:round;stroke-miterlimit:1.5;">
    <path id="bounding-box" serif:id="bounding box" d="M500,125L500,375C500,443.989 443.989,500 375,500L125,500C56.011,500 0,443.989 0,375L0,125C0,56.011 56.011,0 125,0L375,0C443.989,0 500,56.011 500,125Z" style="fill:white;"/>
    <g id="logo" transform="matrix(0.863508,0,0,0.863508,25.772903,-21.843886)">
        <path d="M118,117C118,117 255.311,240.669 355,118L212,318C212,318 296.691,201.282 385.417,295C385.417,295 417.284,331.476 412.417,398C407.413,466.413 336.468,505.951 273.417,512C210.367,518.049 107.967,481.281 106.417,360" style="fill:rgb(235,235,235);fill-opacity:0;stroke:url(#_Radial1);stroke-width:67.55px;"/>
    </g>
    <defs>
        <radialGradient id="_Radial1" cx="0" cy="0" r="1" gradientUnits="userSpaceOnUse" gradientTransform="matrix(306.505576,0,0,395.626951,106.417248,314.813476)"><stop offset="0" style="stop-color:rgb(129,98,255);stop-opacity:1"/><stop offset="1" style="stop-color:rgb(255,166,158);stop-opacity:1"/></radialGradient>
    </defs>
</svg>
